<?xml version="1.0" standalone="no"?>
<!DOCTYPE svg PUBLIC "-//W3C//DTD SVG 20010904//EN"
 "http://www.w3.org/TR/2001/REC-SVG-20010904/DTD/svg10.dtd">
<svg version="1.0" xmlns="http://www.w3.org/2000/svg"
 width="512.000000pt" height="512.000000pt" viewBox="0 0 512.000000 512.000000"
 preserveAspectRatio="xMidYMid meet">

<g transform="translate(0.000000,512.000000) scale(0.100000,-0.100000)"
fill="#FFB91A" stroke="none">
<path d="M2150 5106 c-161 -45 -283 -180 -320 -355 -10 -49 -16 -60 -29 -56
-96 29 -819 187 -861 188 -95 1 -190 -56 -229 -136 -21 -44 -85 -306 -77 -315
3 -2 130 -33 283 -68 153 -36 1004 -231 1891 -435 888 -204 1615 -369 1617
-367 10 10 65 277 65 316 -1 85 -61 181 -140 222 -20 10 -225 62 -455 115
-231 53 -421 98 -423 100 -2 2 3 35 12 74 9 38 16 88 16 110 0 147 -89 303
-214 376 -52 31 -138 53 -607 160 -387 88 -442 95 -529 71z m564 -255 c237
-55 443 -104 458 -110 39 -15 107 -79 129 -123 30 -58 34 -117 14 -198 -11
-43 -22 -70 -29 -67 -6 2 -301 71 -656 152 -355 81 -646 149 -647 149 -5 4 30
123 44 151 42 83 132 142 222 144 18 1 227 -44 465 -98z"/>
<path d="M690 3398 c0 -7 69 -736 154 -1619 169 -1774 155 -1666 232 -1725 72
-56 8 -53 1389 -53 1267 -1 1280 0 1325 20 76 34 120 91 134 169 7 37 306
3171 306 3202 0 17 -71 18 -1770 18 -1409 0 -1770 -3 -1770 -12z m898 -292
l23 -23 64 -1314 c36 -723 65 -1345 65 -1382 0 -59 -3 -71 -25 -92 -31 -32
-75 -32 -111 -2 -23 20 -28 34 -31 83 -2 32 -33 651 -68 1374 -51 1048 -61
1320 -52 1339 26 54 90 61 135 17z m912 19 c20 -10 33 -28 40 -53 8 -26 10
-441 8 -1395 l-3 -1359 -28 -24 c-37 -31 -81 -31 -112 1 l-25 24 0 1380 c0
759 3 1387 6 1396 6 15 55 44 77 45 4 0 21 -7 37 -15z m924 5 c14 -5 32 -20
41 -34 15 -22 11 -128 -50 -1392 -73 -1498 -65 -1406 -128 -1428 -37 -14 -94
14 -103 50 -4 15 23 639 60 1387 71 1455 66 1396 119 1417 29 12 32 12 61 0z"/>
</g>
</svg>
