<?xml version="1.0" standalone="no"?>
<!DOCTYPE svg PUBLIC "-//W3C//DTD SVG 20010904//EN"
 "http://www.w3.org/TR/2001/REC-SVG-20010904/DTD/svg10.dtd">
<svg version="1.0" xmlns="http://www.w3.org/2000/svg"
 width="512.000000pt" height="512.000000pt" viewBox="0 0 512.000000 512.000000"
 preserveAspectRatio="xMidYMid meet">

<g transform="translate(0.000000,512.000000) scale(0.100000,-0.100000)"
fill="#FFB91A" stroke="none">
<path d="M2345 5114 c-16 -2 -73 -9 -125 -15 -945 -108 -1775 -811 -2090
-1769 -43 -131 -83 -300 -107 -457 -24 -155 -24 -527 0 -683 51 -334 162 -645
326 -915 l40 -65 -195 -521 c-220 -587 -216 -569 -145 -640 71 -71 53 -75 640
145 l521 195 68 -41 c256 -156 592 -276 912 -325 143 -21 508 -24 650 -4 591
81 1101 329 1519 736 364 355 595 763 702 1240 67 300 76 682 23 990 -118 691
-520 1311 -1104 1702 -320 215 -663 347 -1060 408 -100 15 -505 29 -575 19z
m370 -304 c587 -55 1081 -275 1451 -648 337 -339 552 -790 619 -1297 21 -157
21 -453 0 -610 -56 -424 -225 -826 -482 -1145 -78 -97 -256 -268 -357 -344
-395 -297 -902 -460 -1421 -459 -394 1 -764 106 -1124 318 -112 66 -140 78
-175 77 -26 -1 -176 -52 -426 -146 -211 -80 -385 -144 -387 -143 -1 2 63 176
143 387 102 271 145 398 145 428 1 36 -10 61 -64 150 -166 273 -254 504 -309
811 -29 166 -32 488 -5 656 50 318 149 599 306 864 445 753 1252 1178 2086
1101z"/>
<path d="M2949 4310 c-99 -17 -193 -96 -223 -188 -8 -26 -65 -317 -127 -646
-124 -666 -122 -645 -55 -704 49 -42 103 -50 161 -22 59 29 76 64 104 209 12
63 23 117 25 119 6 5 413 102 429 102 7 0 36 -77 66 -175 30 -96 63 -189 73
-206 19 -31 86 -69 123 -69 38 0 104 38 125 72 12 19 20 51 20 76 0 34 -207
719 -366 1213 -50 155 -197 245 -355 219z m149 -563 c45 -145 82 -267 82 -270
0 -7 -266 -70 -278 -66 -9 4 98 599 108 599 3 0 43 -119 88 -263z"/>
<path d="M2042 4149 c-34 -7 -75 -39 -95 -74 -8 -13 -14 -116 -17 -305 l-5
-284 -260 -53 c-143 -28 -267 -52 -275 -53 -11 0 -32 50 -74 178 -32 97 -65
190 -73 205 -21 41 -70 67 -127 67 -87 0 -146 -59 -146 -147 0 -48 319 -1010
349 -1052 28 -39 98 -66 148 -56 51 9 108 68 117 120 5 33 -4 71 -53 218 -33
97 -58 177 -57 177 1 0 103 20 226 45 123 25 225 45 227 45 2 0 3 -74 3 -165
0 -187 10 -224 71 -259 70 -41 151 -22 203 48 21 27 21 40 24 619 2 386 -1
604 -7 627 -21 73 -99 116 -179 99z"/>
<path d="M3861 2532 c-19 -9 -43 -29 -54 -43 -11 -16 -60 -189 -124 -445 -114
-457 -119 -490 -72 -540 67 -72 161 -72 227 -1 19 20 45 112 132 458 118 471
120 481 68 536 -50 54 -115 67 -177 35z"/>
<path d="M970 2372 c-48 -24 -80 -75 -80 -129 0 -70 159 -1082 175 -1113 8
-15 28 -39 45 -54 57 -48 161 -31 206 33 33 47 34 76 3 273 -16 106 -29 200
-29 210 0 17 13 18 172 18 l171 0 -6 -95 c-20 -283 -20 -278 2 -313 67 -105
223 -93 265 20 10 29 29 208 56 540 45 551 46 536 -19 591 -55 46 -123 49
-180 8 -45 -32 -58 -74 -70 -221 -6 -74 -14 -156 -17 -182 l-6 -48 -209 0
c-208 0 -209 0 -213 23 -3 12 -15 85 -26 162 -27 182 -37 218 -69 249 -50 48
-112 58 -171 28z"/>
<path d="M2630 2375 c-103 -29 -178 -93 -220 -188 -26 -58 -243 -1212 -236
-1256 20 -128 199 -167 271 -57 9 13 33 111 53 218 l38 193 199 0 199 0 22
-103 c28 -133 39 -158 83 -188 94 -63 231 6 231 117 0 63 -209 1019 -237 1080
-65 147 -243 228 -403 184z m124 -301 c9 -8 16 -17 16 -19 0 -8 91 -430 96
-447 5 -17 -6 -18 -136 -18 -130 0 -141 1 -136 18 3 9 23 116 46 237 23 121
46 225 52 232 14 18 43 16 62 -3z"/>
<path d="M3575 1260 c-71 -16 -98 -46 -121 -132 -29 -109 -13 -176 52 -219 36
-23 116 -25 152 -3 55 32 92 118 92 213 0 94 -85 163 -175 141z"/>
</g>
</svg>
