<?xml version="1.0" standalone="no"?>
<!DOCTYPE svg PUBLIC "-//W3C//DTD SVG 20010904//EN"
 "http://www.w3.org/TR/2001/REC-SVG-20010904/DTD/svg10.dtd">
<svg version="1.0" xmlns="http://www.w3.org/2000/svg"
 width="512.000000pt" height="512.000000pt" viewBox="0 0 512.000000 512.000000"
 preserveAspectRatio="xMidYMid meet">

<g transform="translate(0.000000,512.000000) scale(0.100000,-0.100000)"
fill="#ffb91a" stroke="none">
<path d="M2225 5111 c-11 -5 -29 -19 -40 -31 -19 -21 -20 -36 -20 -234 l0
-211 395 0 395 0 0 212 0 213 -28 27 -27 28 -328 2 c-180 1 -336 -2 -347 -6z"/>
<path d="M1913 4137 c-214 -304 -253 -369 -308 -507 -62 -156 -85 -292 -85
-514 l0 -188 33 -33 c26 -26 44 -34 88 -40 29 -3 464 -5 964 -3 850 3 913 4
938 21 58 38 62 56 60 242 -2 262 -40 432 -139 629 -46 91 -72 130 -314 474
l-135 192 -455 0 -455 0 -192 -273z"/>
<path d="M1693 2614 c-61 -22 -126 -84 -153 -146 -59 -138 2 -297 140 -362 45
-21 51 -21 875 -21 923 0 874 -3 953 69 154 141 107 395 -86 460 -67 23 -1664
22 -1729 0z"/>
<path d="M1694 1844 c-103 -37 -177 -145 -176 -257 1 -111 54 -197 150 -244
l57 -28 835 0 c829 0 835 0 881 21 53 25 110 80 135 132 11 21 20 68 22 110 4
63 1 79 -23 127 -31 65 -90 118 -153 139 -66 23 -1664 22 -1728 0z"/>
<path d="M1579 1075 c-59 -32 -59 -31 -59 -429 0 -344 1 -368 21 -420 28 -77
96 -148 177 -188 l67 -33 754 -3 c819 -3 812 -3 901 53 55 35 116 110 142 174
22 55 23 65 23 416 0 393 0 390 -58 425 -31 19 -59 20 -987 20 -805 -1 -959
-3 -981 -15z"/>
</g>
</svg>
