<?xml version="1.0" standalone="no"?>
<!DOCTYPE svg PUBLIC "-//W3C//DTD SVG 20010904//EN"
 "http://www.w3.org/TR/2001/REC-SVG-20010904/DTD/svg10.dtd">
<svg version="1.0" xmlns="http://www.w3.org/2000/svg"
 width="512.000000pt" height="512.000000pt" viewBox="0 0 512.000000 512.000000"
 preserveAspectRatio="xMidYMid meet">

<g transform="translate(0.000000,512.000000) scale(0.100000,-0.100000)"
fill="#ffb91a" stroke="none">
<path d="M2203 5106 c-89 -29 -147 -81 -189 -171 -23 -48 -24 -60 -24 -291 l0
-241 -158 -224 c-224 -318 -238 -339 -292 -447 -104 -209 -143 -388 -144 -662
-1 -215 9 -259 76 -335 29 -33 39 -51 32 -60 -67 -90 -98 -165 -109 -262 -14
-119 40 -269 128 -360 l31 -33 -31 -32 c-150 -156 -172 -398 -52 -577 l41 -61
-41 -46 c-73 -84 -76 -101 -76 -509 l0 -360 26 -71 c60 -164 169 -274 335
-336 59 -23 62 -23 764 -26 497 -2 725 1 773 9 183 30 345 172 409 357 22 65
23 77 23 432 0 413 -2 424 -78 507 l-39 42 41 62 c117 175 101 402 -40 562
l-41 47 42 48 c110 124 145 287 96 447 -13 42 -50 107 -90 161 -6 8 1 22 23
45 18 19 45 59 59 89 27 54 27 59 27 255 -1 223 -14 318 -65 476 -54 166 -120
283 -325 573 l-193 273 -4 244 c-5 276 -11 306 -79 383 -22 25 -65 57 -97 73
l-57 28 -330 2 c-252 2 -340 -1 -372 -11z m667 -211 c16 -8 34 -24 40 -34 6
-12 10 -97 10 -205 l0 -186 -360 0 -360 0 0 186 c0 107 4 193 10 204 25 46 48
49 348 50 233 0 288 -3 312 -15z m280 -887 c99 -139 202 -296 229 -348 98
-191 133 -343 135 -587 1 -149 -1 -164 -20 -190 -11 -15 -36 -33 -55 -40 -45
-16 -1695 -18 -1751 -3 -71 20 -78 40 -78 230 0 188 14 290 58 420 55 160 81
204 339 568 l144 202 409 0 410 0 180 -252z m192 -1400 c56 -16 133 -88 153
-143 42 -108 -2 -239 -99 -300 l-49 -30 -787 0 -787 0 -49 30 c-33 21 -60 48
-81 85 -28 46 -33 63 -33 120 0 112 60 201 159 236 50 18 1514 20 1573 2z m54
-733 c68 -43 107 -108 112 -190 2 -35 -1 -80 -8 -100 -17 -53 -76 -114 -135
-141 l-50 -24 -751 0 c-634 0 -758 2 -793 15 -100 35 -163 123 -164 229 0 102
48 181 138 222 l50 24 776 -3 776 -2 49 -30z m73 -691 c47 -33 51 -63 51 -356
0 -150 -5 -302 -11 -338 -19 -118 -79 -198 -189 -249 l-55 -26 -705 0 -705 0
-55 26 c-78 36 -124 80 -160 151 l-30 61 0 344 0 345 29 29 29 29 889 0 c805
0 891 -2 912 -16z"/>
</g>
</svg>
